<svg xmlns="http://www.w3.org/2000/svg"
     viewBox="0 0 24 24">
  <path fill="#25D366"
    d="M12 2C6.48 2 2 6.48 2 12
       c0 1.85.5 3.6 1.45 5.13L2 22
       l4.98-1.3A9.93 9.93 0 0 0 12 22
       c5.52 0 10-4.48 10-10
       S17.52 2 12 2z"/>
  <path fill="#fff"
    d="M17.53 14.38c-.27-.14-1.6-.79-1.85-.88
       -.25-.09-.43-.14-.61.14
       -.18.27-.7.88-.86 1.06
       -.16.18-.32.2-.59.07
       -.27-.14-1.15-.42-2.19-1.34
       -.81-.72-1.36-1.61-1.52-1.88
       -.16-.27-.02-.42.12-.55
       .12-.12.27-.32.41-.48
       .14-.16.18-.27.27-.45
       .09-.18.05-.34-.02-.48
       -.07-.14-.61-1.48-.84-2.02
       -.22-.53-.45-.46-.61-.47
       -.16-.01-.34-.01-.52-.01
       -.18 0-.48.07-.73.34
       -.25.27-.96.94-.96 2.29
       0 1.35.98 2.65 1.12 2.83
       .14.18 1.93 2.95 4.68 4.13
       .65.28 1.16.45 1.56.58
       .66.21 1.26.18 1.73.11
       .53-.08 1.6-.65 1.83-1.28
       .23-.63.23-1.17.16-1.28
       -.07-.11-.25-.18-.52-.32z"/>
</svg>